<mxfile host="app.diagrams.net" agent="Mozilla/5.0 (Windows NT 10.0; Win64; x64) AppleWebKit/537.36 (KHTML, like Gecko) Chrome/129.0.0.0 Safari/537.36" version="24.7.17">
  <diagram id="C5RBs43oDa-KdzZeNtuy" name="Page-1">
    <mxGraphModel dx="778" dy="518" grid="1" gridSize="10" guides="1" tooltips="1" connect="1" arrows="1" fold="1" page="1" pageScale="1" pageWidth="827" pageHeight="1169" math="0" shadow="0">
      <root>
        <mxCell id="WIyWlLk6GJQsqaUBKTNV-0" />
        <mxCell id="WIyWlLk6GJQsqaUBKTNV-1" parent="WIyWlLk6GJQsqaUBKTNV-0" />
        <mxCell id="s4ZdgBXKpDiGdb5oLjlv-2" style="edgeStyle=none;curved=1;rounded=0;orthogonalLoop=1;jettySize=auto;html=1;exitX=0.5;exitY=1;exitDx=0;exitDy=0;entryX=0.5;entryY=0;entryDx=0;entryDy=0;fontSize=12;startSize=8;endSize=8;" edge="1" parent="WIyWlLk6GJQsqaUBKTNV-1" source="s4ZdgBXKpDiGdb5oLjlv-0" target="s4ZdgBXKpDiGdb5oLjlv-1">
          <mxGeometry relative="1" as="geometry" />
        </mxCell>
        <mxCell id="s4ZdgBXKpDiGdb5oLjlv-0" value="INICIO" style="rounded=1;whiteSpace=wrap;html=1;" vertex="1" parent="WIyWlLk6GJQsqaUBKTNV-1">
          <mxGeometry x="280" y="60" width="120" height="60" as="geometry" />
        </mxCell>
        <mxCell id="s4ZdgBXKpDiGdb5oLjlv-4" style="edgeStyle=none;curved=1;rounded=0;orthogonalLoop=1;jettySize=auto;html=1;exitX=0.5;exitY=1;exitDx=0;exitDy=0;entryX=0.5;entryY=0;entryDx=0;entryDy=0;fontSize=12;startSize=8;endSize=8;" edge="1" parent="WIyWlLk6GJQsqaUBKTNV-1" source="s4ZdgBXKpDiGdb5oLjlv-1" target="s4ZdgBXKpDiGdb5oLjlv-3">
          <mxGeometry relative="1" as="geometry" />
        </mxCell>
        <mxCell id="s4ZdgBXKpDiGdb5oLjlv-1" value="SEMAFORO 1 LUZ&lt;div&gt;ROJA ENCENDIDA&lt;/div&gt;" style="rounded=1;whiteSpace=wrap;html=1;" vertex="1" parent="WIyWlLk6GJQsqaUBKTNV-1">
          <mxGeometry x="280" y="170" width="120" height="60" as="geometry" />
        </mxCell>
        <mxCell id="s4ZdgBXKpDiGdb5oLjlv-6" style="edgeStyle=none;curved=1;rounded=0;orthogonalLoop=1;jettySize=auto;html=1;exitX=0.5;exitY=1;exitDx=0;exitDy=0;entryX=0.5;entryY=0;entryDx=0;entryDy=0;fontSize=12;startSize=8;endSize=8;" edge="1" parent="WIyWlLk6GJQsqaUBKTNV-1" source="s4ZdgBXKpDiGdb5oLjlv-3" target="s4ZdgBXKpDiGdb5oLjlv-5">
          <mxGeometry relative="1" as="geometry" />
        </mxCell>
        <mxCell id="s4ZdgBXKpDiGdb5oLjlv-3" value="SEMAFORO 2 LUZ&lt;div&gt;ROJA ENCENDIDA&lt;/div&gt;" style="rounded=1;whiteSpace=wrap;html=1;" vertex="1" parent="WIyWlLk6GJQsqaUBKTNV-1">
          <mxGeometry x="280" y="270" width="120" height="60" as="geometry" />
        </mxCell>
        <mxCell id="s4ZdgBXKpDiGdb5oLjlv-8" style="edgeStyle=none;curved=1;rounded=0;orthogonalLoop=1;jettySize=auto;html=1;exitX=0.5;exitY=1;exitDx=0;exitDy=0;entryX=0.5;entryY=0;entryDx=0;entryDy=0;fontSize=12;startSize=8;endSize=8;" edge="1" parent="WIyWlLk6GJQsqaUBKTNV-1" source="s4ZdgBXKpDiGdb5oLjlv-5" target="s4ZdgBXKpDiGdb5oLjlv-7">
          <mxGeometry relative="1" as="geometry" />
        </mxCell>
        <mxCell id="s4ZdgBXKpDiGdb5oLjlv-5" value="SEMAFORO 3 LUZ&lt;div&gt;ROJA ENCENDIDA&lt;/div&gt;" style="rounded=1;whiteSpace=wrap;html=1;" vertex="1" parent="WIyWlLk6GJQsqaUBKTNV-1">
          <mxGeometry x="280" y="370" width="120" height="60" as="geometry" />
        </mxCell>
        <mxCell id="s4ZdgBXKpDiGdb5oLjlv-10" style="edgeStyle=none;curved=1;rounded=0;orthogonalLoop=1;jettySize=auto;html=1;exitX=0.5;exitY=1;exitDx=0;exitDy=0;entryX=0.5;entryY=0;entryDx=0;entryDy=0;fontSize=12;startSize=8;endSize=8;" edge="1" parent="WIyWlLk6GJQsqaUBKTNV-1" source="s4ZdgBXKpDiGdb5oLjlv-7" target="s4ZdgBXKpDiGdb5oLjlv-9">
          <mxGeometry relative="1" as="geometry" />
        </mxCell>
        <mxCell id="s4ZdgBXKpDiGdb5oLjlv-7" value="SEMAFORO 4 LUZ&lt;div&gt;ROJA ENCENDIDA&lt;/div&gt;" style="rounded=1;whiteSpace=wrap;html=1;" vertex="1" parent="WIyWlLk6GJQsqaUBKTNV-1">
          <mxGeometry x="280" y="470" width="120" height="60" as="geometry" />
        </mxCell>
        <mxCell id="s4ZdgBXKpDiGdb5oLjlv-12" style="edgeStyle=none;curved=1;rounded=0;orthogonalLoop=1;jettySize=auto;html=1;exitX=1;exitY=0.5;exitDx=0;exitDy=0;entryX=0.5;entryY=0;entryDx=0;entryDy=0;fontSize=12;startSize=8;endSize=8;" edge="1" parent="WIyWlLk6GJQsqaUBKTNV-1" source="s4ZdgBXKpDiGdb5oLjlv-9" target="s4ZdgBXKpDiGdb5oLjlv-11">
          <mxGeometry relative="1" as="geometry" />
        </mxCell>
        <mxCell id="s4ZdgBXKpDiGdb5oLjlv-9" value="BUCLE" style="shape=trapezoid;perimeter=trapezoidPerimeter;whiteSpace=wrap;html=1;fixedSize=1;" vertex="1" parent="WIyWlLk6GJQsqaUBKTNV-1">
          <mxGeometry x="280" y="570" width="120" height="60" as="geometry" />
        </mxCell>
        <mxCell id="s4ZdgBXKpDiGdb5oLjlv-14" style="edgeStyle=none;curved=1;rounded=0;orthogonalLoop=1;jettySize=auto;html=1;exitX=0.5;exitY=1;exitDx=0;exitDy=0;entryX=0.5;entryY=0;entryDx=0;entryDy=0;fontSize=12;startSize=8;endSize=8;" edge="1" parent="WIyWlLk6GJQsqaUBKTNV-1" source="s4ZdgBXKpDiGdb5oLjlv-11" target="s4ZdgBXKpDiGdb5oLjlv-13">
          <mxGeometry relative="1" as="geometry" />
        </mxCell>
        <mxCell id="s4ZdgBXKpDiGdb5oLjlv-11" value="SEMAFORO 1 LUZ VERDE APAGAR" style="rounded=1;whiteSpace=wrap;html=1;" vertex="1" parent="WIyWlLk6GJQsqaUBKTNV-1">
          <mxGeometry x="420" y="660" width="120" height="60" as="geometry" />
        </mxCell>
        <mxCell id="s4ZdgBXKpDiGdb5oLjlv-16" style="edgeStyle=none;curved=1;rounded=0;orthogonalLoop=1;jettySize=auto;html=1;exitX=0.5;exitY=1;exitDx=0;exitDy=0;entryX=0.5;entryY=0;entryDx=0;entryDy=0;fontSize=12;startSize=8;endSize=8;" edge="1" parent="WIyWlLk6GJQsqaUBKTNV-1" source="s4ZdgBXKpDiGdb5oLjlv-13" target="s4ZdgBXKpDiGdb5oLjlv-15">
          <mxGeometry relative="1" as="geometry" />
        </mxCell>
        <mxCell id="s4ZdgBXKpDiGdb5oLjlv-13" value="SEMAFORO 1 LUZ VERDE ENCENDER" style="rounded=1;whiteSpace=wrap;html=1;" vertex="1" parent="WIyWlLk6GJQsqaUBKTNV-1">
          <mxGeometry x="420" y="760" width="120" height="60" as="geometry" />
        </mxCell>
        <mxCell id="s4ZdgBXKpDiGdb5oLjlv-20" style="edgeStyle=none;curved=1;rounded=0;orthogonalLoop=1;jettySize=auto;html=1;exitX=0.5;exitY=1;exitDx=0;exitDy=0;entryX=0.5;entryY=0;entryDx=0;entryDy=0;fontSize=12;startSize=8;endSize=8;" edge="1" parent="WIyWlLk6GJQsqaUBKTNV-1" source="s4ZdgBXKpDiGdb5oLjlv-15" target="s4ZdgBXKpDiGdb5oLjlv-17">
          <mxGeometry relative="1" as="geometry" />
        </mxCell>
        <mxCell id="s4ZdgBXKpDiGdb5oLjlv-15" value="PEATON (2)" style="shape=process;whiteSpace=wrap;html=1;backgroundOutline=1;" vertex="1" parent="WIyWlLk6GJQsqaUBKTNV-1">
          <mxGeometry x="420" y="860" width="120" height="60" as="geometry" />
        </mxCell>
        <mxCell id="s4ZdgBXKpDiGdb5oLjlv-22" style="edgeStyle=none;curved=1;rounded=0;orthogonalLoop=1;jettySize=auto;html=1;exitX=0.5;exitY=1;exitDx=0;exitDy=0;entryX=0.5;entryY=0;entryDx=0;entryDy=0;fontSize=12;startSize=8;endSize=8;" edge="1" parent="WIyWlLk6GJQsqaUBKTNV-1" source="s4ZdgBXKpDiGdb5oLjlv-17" target="s4ZdgBXKpDiGdb5oLjlv-21">
          <mxGeometry relative="1" as="geometry" />
        </mxCell>
        <mxCell id="s4ZdgBXKpDiGdb5oLjlv-17" value="SEMAFORO 1 LUZ VERDE ENCENDER" style="rounded=1;whiteSpace=wrap;html=1;" vertex="1" parent="WIyWlLk6GJQsqaUBKTNV-1">
          <mxGeometry x="420" y="960" width="120" height="60" as="geometry" />
        </mxCell>
        <mxCell id="s4ZdgBXKpDiGdb5oLjlv-21" value="SEMAFORO 1 LUZ AMARILLA ENCENDER" style="rounded=1;whiteSpace=wrap;html=1;" vertex="1" parent="WIyWlLk6GJQsqaUBKTNV-1">
          <mxGeometry x="420" y="1060" width="120" height="60" as="geometry" />
        </mxCell>
        <mxCell id="s4ZdgBXKpDiGdb5oLjlv-33" style="edgeStyle=none;curved=1;rounded=0;orthogonalLoop=1;jettySize=auto;html=1;exitX=0.5;exitY=1;exitDx=0;exitDy=0;entryX=0.5;entryY=0;entryDx=0;entryDy=0;fontSize=12;startSize=8;endSize=8;" edge="1" parent="WIyWlLk6GJQsqaUBKTNV-1" source="s4ZdgBXKpDiGdb5oLjlv-30" target="s4ZdgBXKpDiGdb5oLjlv-32">
          <mxGeometry relative="1" as="geometry" />
        </mxCell>
        <mxCell id="s4ZdgBXKpDiGdb5oLjlv-30" value="SEMAFORO 1 LUZ AMARILLA APAGAR" style="rounded=0;whiteSpace=wrap;html=1;" vertex="1" parent="WIyWlLk6GJQsqaUBKTNV-1">
          <mxGeometry x="420" y="1280" width="120" height="60" as="geometry" />
        </mxCell>
        <mxCell id="s4ZdgBXKpDiGdb5oLjlv-32" value="SEMFORO 1 LUZ ROJA ENCENDER" style="rounded=1;whiteSpace=wrap;html=1;" vertex="1" parent="WIyWlLk6GJQsqaUBKTNV-1">
          <mxGeometry x="420" y="1380" width="120" height="60" as="geometry" />
        </mxCell>
        <mxCell id="s4ZdgBXKpDiGdb5oLjlv-37" style="edgeStyle=none;curved=1;rounded=0;orthogonalLoop=1;jettySize=auto;html=1;exitX=0.5;exitY=1;exitDx=0;exitDy=0;exitPerimeter=0;entryX=0.5;entryY=0;entryDx=0;entryDy=0;fontSize=12;startSize=8;endSize=8;" edge="1" parent="WIyWlLk6GJQsqaUBKTNV-1" source="s4ZdgBXKpDiGdb5oLjlv-36" target="s4ZdgBXKpDiGdb5oLjlv-30">
          <mxGeometry relative="1" as="geometry" />
        </mxCell>
        <mxCell id="s4ZdgBXKpDiGdb5oLjlv-36" value="DELAY 30 S" style="strokeWidth=2;html=1;shape=mxgraph.flowchart.delay;whiteSpace=wrap;" vertex="1" parent="WIyWlLk6GJQsqaUBKTNV-1">
          <mxGeometry x="430" y="1169" width="100" height="60" as="geometry" />
        </mxCell>
        <mxCell id="s4ZdgBXKpDiGdb5oLjlv-39" style="edgeStyle=none;curved=1;rounded=0;orthogonalLoop=1;jettySize=auto;html=1;exitX=0.5;exitY=1;exitDx=0;exitDy=0;entryX=0.5;entryY=0;entryDx=0;entryDy=0;entryPerimeter=0;fontSize=12;startSize=8;endSize=8;" edge="1" parent="WIyWlLk6GJQsqaUBKTNV-1" source="s4ZdgBXKpDiGdb5oLjlv-21" target="s4ZdgBXKpDiGdb5oLjlv-36">
          <mxGeometry relative="1" as="geometry" />
        </mxCell>
        <mxCell id="s4ZdgBXKpDiGdb5oLjlv-43" style="edgeStyle=none;curved=1;rounded=0;orthogonalLoop=1;jettySize=auto;html=1;exitX=0.5;exitY=1;exitDx=0;exitDy=0;entryX=0.5;entryY=0;entryDx=0;entryDy=0;fontSize=12;startSize=8;endSize=8;" edge="1" parent="WIyWlLk6GJQsqaUBKTNV-1" source="s4ZdgBXKpDiGdb5oLjlv-41" target="s4ZdgBXKpDiGdb5oLjlv-42">
          <mxGeometry relative="1" as="geometry" />
        </mxCell>
        <mxCell id="s4ZdgBXKpDiGdb5oLjlv-41" value="(SEMAFORO, PEATON)" style="shape=process;whiteSpace=wrap;html=1;backgroundOutline=1;" vertex="1" parent="WIyWlLk6GJQsqaUBKTNV-1">
          <mxGeometry x="600" y="660" width="120" height="60" as="geometry" />
        </mxCell>
        <mxCell id="s4ZdgBXKpDiGdb5oLjlv-45" style="edgeStyle=none;curved=1;rounded=0;orthogonalLoop=1;jettySize=auto;html=1;exitX=0.5;exitY=1;exitDx=0;exitDy=0;entryX=0.5;entryY=0;entryDx=0;entryDy=0;fontSize=12;startSize=8;endSize=8;" edge="1" parent="WIyWlLk6GJQsqaUBKTNV-1" source="s4ZdgBXKpDiGdb5oLjlv-42" target="s4ZdgBXKpDiGdb5oLjlv-44">
          <mxGeometry relative="1" as="geometry" />
        </mxCell>
        <mxCell id="s4ZdgBXKpDiGdb5oLjlv-42" value="3,4" style="shape=process;whiteSpace=wrap;html=1;backgroundOutline=1;" vertex="1" parent="WIyWlLk6GJQsqaUBKTNV-1">
          <mxGeometry x="600" y="750" width="120" height="60" as="geometry" />
        </mxCell>
        <mxCell id="s4ZdgBXKpDiGdb5oLjlv-47" style="edgeStyle=none;curved=1;rounded=0;orthogonalLoop=1;jettySize=auto;html=1;exitX=0.5;exitY=1;exitDx=0;exitDy=0;entryX=0.5;entryY=0;entryDx=0;entryDy=0;fontSize=12;startSize=8;endSize=8;" edge="1" parent="WIyWlLk6GJQsqaUBKTNV-1" source="s4ZdgBXKpDiGdb5oLjlv-44" target="s4ZdgBXKpDiGdb5oLjlv-46">
          <mxGeometry relative="1" as="geometry" />
        </mxCell>
        <mxCell id="s4ZdgBXKpDiGdb5oLjlv-44" value="1,2" style="shape=process;whiteSpace=wrap;html=1;backgroundOutline=1;" vertex="1" parent="WIyWlLk6GJQsqaUBKTNV-1">
          <mxGeometry x="600" y="850" width="120" height="60" as="geometry" />
        </mxCell>
        <mxCell id="s4ZdgBXKpDiGdb5oLjlv-50" style="edgeStyle=none;curved=1;rounded=0;orthogonalLoop=1;jettySize=auto;html=1;exitX=0.5;exitY=1;exitDx=0;exitDy=0;entryX=0.5;entryY=0;entryDx=0;entryDy=0;fontSize=12;startSize=8;endSize=8;" edge="1" parent="WIyWlLk6GJQsqaUBKTNV-1" source="s4ZdgBXKpDiGdb5oLjlv-46" target="s4ZdgBXKpDiGdb5oLjlv-48">
          <mxGeometry relative="1" as="geometry" />
        </mxCell>
        <mxCell id="s4ZdgBXKpDiGdb5oLjlv-46" value="2,3" style="shape=process;whiteSpace=wrap;html=1;backgroundOutline=1;" vertex="1" parent="WIyWlLk6GJQsqaUBKTNV-1">
          <mxGeometry x="600" y="950" width="120" height="60" as="geometry" />
        </mxCell>
        <mxCell id="s4ZdgBXKpDiGdb5oLjlv-48" value="4,1" style="shape=process;whiteSpace=wrap;html=1;backgroundOutline=1;" vertex="1" parent="WIyWlLk6GJQsqaUBKTNV-1">
          <mxGeometry x="600" y="1050" width="120" height="60" as="geometry" />
        </mxCell>
      </root>
    </mxGraphModel>
  </diagram>
</mxfile>
